# xmcd
#
# Track frame offsets: 
#        150
#        27839
#        54158
#        75354
#        108294
#        132341
#        150666
#        173663
#        200074
#        217811
#        238518
#        263821
#        284013
#        318204
#
# Disc length: 4409 seconds
#
# Revision: 0
# Processed by: cddbd v1.4PL0 Copyright (c) Steve Scherf et al.
# Submitted via: ExactAudioCopy v0.90b4
#
DISCID=b411370e
DTITLE=Van Morrison - Unaired Broadcast from Vossajazz 1988
DYEAR=1988
DGENRE=Celtic
TTITLE0=Celtic Excavation
TTITLE1=Foreign Window
TTITLE2=Queen Of The Slipstream
TTITLE3=In The Garden
TTITLE4=A Sense Of Wonder
TTITLE5=Tore Down A La Rimbaud
TTITLE6=Someone Like You
TTITLE7=Saint Dominic's Preview
TTITLE8=She Gives Me Religion
TTITLE9=The Mystery
TTITLE10=Haunts Of Ancient Peace
TTITLE11=Tupelo Honey
TTITLE12=Improvisation > Moondance
TTITLE13=Full Force Gale
EXTD=
EXTT0=
EXTT1=
EXTT2=
EXTT3=
EXTT4=
EXTT5=
EXTT6=
EXTT7=
EXTT8=
EXTT9=
EXTT10=
EXTT11=
EXTT12=
EXTT13=
PLAYORDER=
